M48
; DRILL file {KiCad (5.1.2)-1} date 6/6/2019 12:59:34 AM
; FORMAT={-:-/ absolute / inch / decimal}
; #@! TF.CreationDate,2019-06-06T00:59:34-04:00
; #@! TF.GenerationSoftware,Kicad,Pcbnew,(5.1.2)-1
FMAT,2
INCH
T1C0.0260
T2C0.0339
T3C0.0394
T4C0.1250
T5C0.1260
T6C0.0768
T7C0.1260
%
G90
G05
T1
X6.3488Y-4.3839
X6.3488Y-4.4839
X6.3988Y-4.3339
X6.3988Y-4.5339
X6.4488Y-4.3839
X6.4488Y-4.4839
T2
X6.5724Y-4.3598
X6.5724Y-4.435
X6.5724Y-4.5102
X6.6476Y-4.3598
X6.6476Y-4.435
X6.6476Y-4.5102
X6.7228Y-4.3598
X6.7228Y-4.435
X6.7228Y-4.5102
X6.798Y-4.3598
X6.798Y-4.435
X6.798Y-4.5102
X6.8732Y-4.3598
X6.8732Y-4.435
X6.8732Y-4.5102
X6.9484Y-4.3598
X6.9484Y-4.435
X6.9484Y-4.5102
X7.0236Y-4.3598
X7.0236Y-4.435
X7.0236Y-4.5102
X7.0988Y-4.3598
X7.0988Y-4.435
X7.0988Y-4.5102
T3
X6.5091Y-4.7557
X6.5541Y-4.6777
X6.5541Y-4.8336
X6.5992Y-4.7557
X6.6443Y-4.6777
X6.6443Y-4.8336
X6.6894Y-4.7557
X6.7344Y-4.6777
X6.7344Y-4.8336
X6.7795Y-4.7557
X6.8246Y-4.6777
X6.8246Y-4.8336
X6.8697Y-4.7557
X6.9148Y-4.6777
X6.9148Y-4.8336
T4
X6.098Y-4.3
X7.35Y-4.3
T5
X6.2319Y-4.7584
X7.2161Y-4.7584
T6
X6.3488Y-4.2287
X7.0988Y-4.2287
T7
X7.5Y-4.75
X5.948Y-4.75
T0
M30
