G04 #@! TF.GenerationSoftware,KiCad,Pcbnew,(5.1.2)-1*
G04 #@! TF.CreationDate,2019-06-06T00:59:27-04:00*
G04 #@! TF.ProjectId,VGA to DVI_SIMPLE,56474120-746f-4204-9456-495f53494d50,rev?*
G04 #@! TF.SameCoordinates,Original*
G04 #@! TF.FileFunction,Soldermask,Top*
G04 #@! TF.FilePolarity,Negative*
%FSLAX46Y46*%
G04 Gerber Fmt 4.6, Leading zero omitted, Abs format (unit mm)*
G04 Created by KiCad (PCBNEW (5.1.2)-1) date 2019-06-06 00:59:27*
%MOMM*%
%LPD*%
G04 APERTURE LIST*
%ADD10C,0.100000*%
G04 APERTURE END LIST*
D10*
G36*
X171303228Y-121956042D02*
G01*
X171458100Y-122020192D01*
X171597481Y-122113324D01*
X171716015Y-122231858D01*
X171809147Y-122371239D01*
X171873297Y-122526111D01*
X171906000Y-122690523D01*
X171906000Y-122858155D01*
X171873297Y-123022567D01*
X171809147Y-123177439D01*
X171716015Y-123316820D01*
X171597481Y-123435354D01*
X171458100Y-123528486D01*
X171303228Y-123592636D01*
X171138816Y-123625339D01*
X170971184Y-123625339D01*
X170806772Y-123592636D01*
X170651900Y-123528486D01*
X170512519Y-123435354D01*
X170393985Y-123316820D01*
X170300853Y-123177439D01*
X170236703Y-123022567D01*
X170204000Y-122858155D01*
X170204000Y-122690523D01*
X170236703Y-122526111D01*
X170300853Y-122371239D01*
X170393985Y-122231858D01*
X170512519Y-122113324D01*
X170651900Y-122020192D01*
X170806772Y-121956042D01*
X170971184Y-121923339D01*
X171138816Y-121923339D01*
X171303228Y-121956042D01*
X171303228Y-121956042D01*
G37*
G36*
X173593228Y-121956042D02*
G01*
X173748100Y-122020192D01*
X173887481Y-122113324D01*
X174006015Y-122231858D01*
X174099147Y-122371239D01*
X174163297Y-122526111D01*
X174196000Y-122690523D01*
X174196000Y-122858155D01*
X174163297Y-123022567D01*
X174099147Y-123177439D01*
X174006015Y-123316820D01*
X173887481Y-123435354D01*
X173748100Y-123528486D01*
X173593228Y-123592636D01*
X173428816Y-123625339D01*
X173261184Y-123625339D01*
X173096772Y-123592636D01*
X172941900Y-123528486D01*
X172802519Y-123435354D01*
X172683985Y-123316820D01*
X172590853Y-123177439D01*
X172526703Y-123022567D01*
X172494000Y-122858155D01*
X172494000Y-122690523D01*
X172526703Y-122526111D01*
X172590853Y-122371239D01*
X172683985Y-122231858D01*
X172802519Y-122113324D01*
X172941900Y-122020192D01*
X173096772Y-121956042D01*
X173261184Y-121923339D01*
X173428816Y-121923339D01*
X173593228Y-121956042D01*
X173593228Y-121956042D01*
G37*
G36*
X175883228Y-121956042D02*
G01*
X176038100Y-122020192D01*
X176177481Y-122113324D01*
X176296015Y-122231858D01*
X176389147Y-122371239D01*
X176453297Y-122526111D01*
X176486000Y-122690523D01*
X176486000Y-122858155D01*
X176453297Y-123022567D01*
X176389147Y-123177439D01*
X176296015Y-123316820D01*
X176177481Y-123435354D01*
X176038100Y-123528486D01*
X175883228Y-123592636D01*
X175718816Y-123625339D01*
X175551184Y-123625339D01*
X175386772Y-123592636D01*
X175231900Y-123528486D01*
X175092519Y-123435354D01*
X174973985Y-123316820D01*
X174880853Y-123177439D01*
X174816703Y-123022567D01*
X174784000Y-122858155D01*
X174784000Y-122690523D01*
X174816703Y-122526111D01*
X174880853Y-122371239D01*
X174973985Y-122231858D01*
X175092519Y-122113324D01*
X175231900Y-122020192D01*
X175386772Y-121956042D01*
X175551184Y-121923339D01*
X175718816Y-121923339D01*
X175883228Y-121956042D01*
X175883228Y-121956042D01*
G37*
G36*
X169013228Y-121956042D02*
G01*
X169168100Y-122020192D01*
X169307481Y-122113324D01*
X169426015Y-122231858D01*
X169519147Y-122371239D01*
X169583297Y-122526111D01*
X169616000Y-122690523D01*
X169616000Y-122858155D01*
X169583297Y-123022567D01*
X169519147Y-123177439D01*
X169426015Y-123316820D01*
X169307481Y-123435354D01*
X169168100Y-123528486D01*
X169013228Y-123592636D01*
X168848816Y-123625339D01*
X168681184Y-123625339D01*
X168516772Y-123592636D01*
X168361900Y-123528486D01*
X168222519Y-123435354D01*
X168103985Y-123316820D01*
X168010853Y-123177439D01*
X167946703Y-123022567D01*
X167914000Y-122858155D01*
X167914000Y-122690523D01*
X167946703Y-122526111D01*
X168010853Y-122371239D01*
X168103985Y-122231858D01*
X168222519Y-122113324D01*
X168361900Y-122020192D01*
X168516772Y-121956042D01*
X168681184Y-121923339D01*
X168848816Y-121923339D01*
X169013228Y-121956042D01*
X169013228Y-121956042D01*
G37*
G36*
X166723228Y-121956042D02*
G01*
X166878100Y-122020192D01*
X167017481Y-122113324D01*
X167136015Y-122231858D01*
X167229147Y-122371239D01*
X167293297Y-122526111D01*
X167326000Y-122690523D01*
X167326000Y-122858155D01*
X167293297Y-123022567D01*
X167229147Y-123177439D01*
X167136015Y-123316820D01*
X167017481Y-123435354D01*
X166878100Y-123528486D01*
X166723228Y-123592636D01*
X166558816Y-123625339D01*
X166391184Y-123625339D01*
X166226772Y-123592636D01*
X166071900Y-123528486D01*
X165932519Y-123435354D01*
X165813985Y-123316820D01*
X165720853Y-123177439D01*
X165656703Y-123022567D01*
X165624000Y-122858155D01*
X165624000Y-122690523D01*
X165656703Y-122526111D01*
X165720853Y-122371239D01*
X165813985Y-122231858D01*
X165932519Y-122113324D01*
X166071900Y-122020192D01*
X166226772Y-121956042D01*
X166391184Y-121923339D01*
X166558816Y-121923339D01*
X166723228Y-121956042D01*
X166723228Y-121956042D01*
G37*
G36*
X183888254Y-118892157D02*
G01*
X184261511Y-119046765D01*
X184261513Y-119046766D01*
X184597436Y-119271223D01*
X184883116Y-119556903D01*
X185090957Y-119867958D01*
X185107574Y-119892828D01*
X185262182Y-120266085D01*
X185341000Y-120662332D01*
X185341000Y-121066346D01*
X185262182Y-121462593D01*
X185107574Y-121835850D01*
X185107573Y-121835852D01*
X184883116Y-122171775D01*
X184597436Y-122457455D01*
X184261513Y-122681912D01*
X184261512Y-122681913D01*
X184261511Y-122681913D01*
X183888254Y-122836521D01*
X183492007Y-122915339D01*
X183087993Y-122915339D01*
X182691746Y-122836521D01*
X182318489Y-122681913D01*
X182318488Y-122681913D01*
X182318487Y-122681912D01*
X181982564Y-122457455D01*
X181696884Y-122171775D01*
X181472427Y-121835852D01*
X181472426Y-121835850D01*
X181317818Y-121462593D01*
X181239000Y-121066346D01*
X181239000Y-120662332D01*
X181317818Y-120266085D01*
X181472426Y-119892828D01*
X181489044Y-119867958D01*
X181696884Y-119556903D01*
X181982564Y-119271223D01*
X182318487Y-119046766D01*
X182318489Y-119046765D01*
X182691746Y-118892157D01*
X183087993Y-118813339D01*
X183492007Y-118813339D01*
X183888254Y-118892157D01*
X183888254Y-118892157D01*
G37*
G36*
X158888254Y-118892157D02*
G01*
X159261511Y-119046765D01*
X159261513Y-119046766D01*
X159597436Y-119271223D01*
X159883116Y-119556903D01*
X160090957Y-119867958D01*
X160107574Y-119892828D01*
X160262182Y-120266085D01*
X160341000Y-120662332D01*
X160341000Y-121066346D01*
X160262182Y-121462593D01*
X160107574Y-121835850D01*
X160107573Y-121835852D01*
X159883116Y-122171775D01*
X159597436Y-122457455D01*
X159261513Y-122681912D01*
X159261512Y-122681913D01*
X159261511Y-122681913D01*
X158888254Y-122836521D01*
X158492007Y-122915339D01*
X158087993Y-122915339D01*
X157691746Y-122836521D01*
X157318489Y-122681913D01*
X157318488Y-122681913D01*
X157318487Y-122681912D01*
X156982564Y-122457455D01*
X156696884Y-122171775D01*
X156472427Y-121835852D01*
X156472426Y-121835850D01*
X156317818Y-121462593D01*
X156239000Y-121066346D01*
X156239000Y-120662332D01*
X156317818Y-120266085D01*
X156472426Y-119892828D01*
X156489044Y-119867958D01*
X156696884Y-119556903D01*
X156982564Y-119271223D01*
X157318487Y-119046766D01*
X157318489Y-119046765D01*
X157691746Y-118892157D01*
X158087993Y-118813339D01*
X158492007Y-118813339D01*
X158888254Y-118892157D01*
X158888254Y-118892157D01*
G37*
G36*
X190875256Y-119041298D02*
G01*
X190981579Y-119062447D01*
X191282042Y-119186903D01*
X191552451Y-119367585D01*
X191782415Y-119597549D01*
X191782416Y-119597551D01*
X191963098Y-119867960D01*
X192087553Y-120168422D01*
X192151000Y-120487389D01*
X192151000Y-120812611D01*
X192137962Y-120878155D01*
X192087553Y-121131579D01*
X191963097Y-121432042D01*
X191782415Y-121702451D01*
X191552451Y-121932415D01*
X191282042Y-122113097D01*
X190981579Y-122237553D01*
X190875256Y-122258702D01*
X190662611Y-122301000D01*
X190337389Y-122301000D01*
X190124744Y-122258702D01*
X190018421Y-122237553D01*
X189717958Y-122113097D01*
X189447549Y-121932415D01*
X189217585Y-121702451D01*
X189036903Y-121432042D01*
X188912447Y-121131579D01*
X188862038Y-120878155D01*
X188849000Y-120812611D01*
X188849000Y-120487389D01*
X188912447Y-120168422D01*
X189036902Y-119867960D01*
X189217584Y-119597551D01*
X189217585Y-119597549D01*
X189447549Y-119367585D01*
X189717958Y-119186903D01*
X190018421Y-119062447D01*
X190124744Y-119041298D01*
X190337389Y-118999000D01*
X190662611Y-118999000D01*
X190875256Y-119041298D01*
X190875256Y-119041298D01*
G37*
G36*
X151455256Y-119041298D02*
G01*
X151561579Y-119062447D01*
X151862042Y-119186903D01*
X152132451Y-119367585D01*
X152362415Y-119597549D01*
X152362416Y-119597551D01*
X152543098Y-119867960D01*
X152667553Y-120168422D01*
X152731000Y-120487389D01*
X152731000Y-120812611D01*
X152717962Y-120878155D01*
X152667553Y-121131579D01*
X152543097Y-121432042D01*
X152362415Y-121702451D01*
X152132451Y-121932415D01*
X151862042Y-122113097D01*
X151561579Y-122237553D01*
X151455256Y-122258702D01*
X151242611Y-122301000D01*
X150917389Y-122301000D01*
X150704744Y-122258702D01*
X150598421Y-122237553D01*
X150297958Y-122113097D01*
X150027549Y-121932415D01*
X149797585Y-121702451D01*
X149616903Y-121432042D01*
X149492447Y-121131579D01*
X149442038Y-120878155D01*
X149429000Y-120812611D01*
X149429000Y-120487389D01*
X149492447Y-120168422D01*
X149616902Y-119867960D01*
X149797584Y-119597551D01*
X149797585Y-119597549D01*
X150027549Y-119367585D01*
X150297958Y-119186903D01*
X150598421Y-119062447D01*
X150704744Y-119041298D01*
X150917389Y-118999000D01*
X151242611Y-118999000D01*
X151455256Y-119041298D01*
X151455256Y-119041298D01*
G37*
G36*
X165578228Y-119976042D02*
G01*
X165733100Y-120040192D01*
X165872481Y-120133324D01*
X165991015Y-120251858D01*
X166084147Y-120391239D01*
X166148297Y-120546111D01*
X166181000Y-120710523D01*
X166181000Y-120878155D01*
X166148297Y-121042567D01*
X166084147Y-121197439D01*
X165991015Y-121336820D01*
X165872481Y-121455354D01*
X165733100Y-121548486D01*
X165578228Y-121612636D01*
X165413816Y-121645339D01*
X165246184Y-121645339D01*
X165081772Y-121612636D01*
X164926900Y-121548486D01*
X164787519Y-121455354D01*
X164668985Y-121336820D01*
X164575853Y-121197439D01*
X164511703Y-121042567D01*
X164479000Y-120878155D01*
X164479000Y-120710523D01*
X164511703Y-120546111D01*
X164575853Y-120391239D01*
X164668985Y-120251858D01*
X164787519Y-120133324D01*
X164926900Y-120040192D01*
X165081772Y-119976042D01*
X165246184Y-119943339D01*
X165413816Y-119943339D01*
X165578228Y-119976042D01*
X165578228Y-119976042D01*
G37*
G36*
X174738228Y-119976042D02*
G01*
X174893100Y-120040192D01*
X175032481Y-120133324D01*
X175151015Y-120251858D01*
X175244147Y-120391239D01*
X175308297Y-120546111D01*
X175341000Y-120710523D01*
X175341000Y-120878155D01*
X175308297Y-121042567D01*
X175244147Y-121197439D01*
X175151015Y-121336820D01*
X175032481Y-121455354D01*
X174893100Y-121548486D01*
X174738228Y-121612636D01*
X174573816Y-121645339D01*
X174406184Y-121645339D01*
X174241772Y-121612636D01*
X174086900Y-121548486D01*
X173947519Y-121455354D01*
X173828985Y-121336820D01*
X173735853Y-121197439D01*
X173671703Y-121042567D01*
X173639000Y-120878155D01*
X173639000Y-120710523D01*
X173671703Y-120546111D01*
X173735853Y-120391239D01*
X173828985Y-120251858D01*
X173947519Y-120133324D01*
X174086900Y-120040192D01*
X174241772Y-119976042D01*
X174406184Y-119943339D01*
X174573816Y-119943339D01*
X174738228Y-119976042D01*
X174738228Y-119976042D01*
G37*
G36*
X172448228Y-119976042D02*
G01*
X172603100Y-120040192D01*
X172742481Y-120133324D01*
X172861015Y-120251858D01*
X172954147Y-120391239D01*
X173018297Y-120546111D01*
X173051000Y-120710523D01*
X173051000Y-120878155D01*
X173018297Y-121042567D01*
X172954147Y-121197439D01*
X172861015Y-121336820D01*
X172742481Y-121455354D01*
X172603100Y-121548486D01*
X172448228Y-121612636D01*
X172283816Y-121645339D01*
X172116184Y-121645339D01*
X171951772Y-121612636D01*
X171796900Y-121548486D01*
X171657519Y-121455354D01*
X171538985Y-121336820D01*
X171445853Y-121197439D01*
X171381703Y-121042567D01*
X171349000Y-120878155D01*
X171349000Y-120710523D01*
X171381703Y-120546111D01*
X171445853Y-120391239D01*
X171538985Y-120251858D01*
X171657519Y-120133324D01*
X171796900Y-120040192D01*
X171951772Y-119976042D01*
X172116184Y-119943339D01*
X172283816Y-119943339D01*
X172448228Y-119976042D01*
X172448228Y-119976042D01*
G37*
G36*
X170158228Y-119976042D02*
G01*
X170313100Y-120040192D01*
X170452481Y-120133324D01*
X170571015Y-120251858D01*
X170664147Y-120391239D01*
X170728297Y-120546111D01*
X170761000Y-120710523D01*
X170761000Y-120878155D01*
X170728297Y-121042567D01*
X170664147Y-121197439D01*
X170571015Y-121336820D01*
X170452481Y-121455354D01*
X170313100Y-121548486D01*
X170158228Y-121612636D01*
X169993816Y-121645339D01*
X169826184Y-121645339D01*
X169661772Y-121612636D01*
X169506900Y-121548486D01*
X169367519Y-121455354D01*
X169248985Y-121336820D01*
X169155853Y-121197439D01*
X169091703Y-121042567D01*
X169059000Y-120878155D01*
X169059000Y-120710523D01*
X169091703Y-120546111D01*
X169155853Y-120391239D01*
X169248985Y-120251858D01*
X169367519Y-120133324D01*
X169506900Y-120040192D01*
X169661772Y-119976042D01*
X169826184Y-119943339D01*
X169993816Y-119943339D01*
X170158228Y-119976042D01*
X170158228Y-119976042D01*
G37*
G36*
X167868228Y-119976042D02*
G01*
X168023100Y-120040192D01*
X168162481Y-120133324D01*
X168281015Y-120251858D01*
X168374147Y-120391239D01*
X168438297Y-120546111D01*
X168471000Y-120710523D01*
X168471000Y-120878155D01*
X168438297Y-121042567D01*
X168374147Y-121197439D01*
X168281015Y-121336820D01*
X168162481Y-121455354D01*
X168023100Y-121548486D01*
X167868228Y-121612636D01*
X167703816Y-121645339D01*
X167536184Y-121645339D01*
X167371772Y-121612636D01*
X167216900Y-121548486D01*
X167077519Y-121455354D01*
X166958985Y-121336820D01*
X166865853Y-121197439D01*
X166801703Y-121042567D01*
X166769000Y-120878155D01*
X166769000Y-120710523D01*
X166801703Y-120546111D01*
X166865853Y-120391239D01*
X166958985Y-120251858D01*
X167077519Y-120133324D01*
X167216900Y-120040192D01*
X167371772Y-119976042D01*
X167536184Y-119943339D01*
X167703816Y-119943339D01*
X167868228Y-119976042D01*
X167868228Y-119976042D01*
G37*
G36*
X175883228Y-117996042D02*
G01*
X176038100Y-118060192D01*
X176177481Y-118153324D01*
X176296015Y-118271858D01*
X176389147Y-118411239D01*
X176453297Y-118566111D01*
X176486000Y-118730523D01*
X176486000Y-118898155D01*
X176453297Y-119062567D01*
X176389147Y-119217439D01*
X176296015Y-119356820D01*
X176177481Y-119475354D01*
X176038100Y-119568486D01*
X175883228Y-119632636D01*
X175718816Y-119665339D01*
X175551184Y-119665339D01*
X175386772Y-119632636D01*
X175231900Y-119568486D01*
X175092519Y-119475354D01*
X174973985Y-119356820D01*
X174880853Y-119217439D01*
X174816703Y-119062567D01*
X174784000Y-118898155D01*
X174784000Y-118730523D01*
X174816703Y-118566111D01*
X174880853Y-118411239D01*
X174973985Y-118271858D01*
X175092519Y-118153324D01*
X175231900Y-118060192D01*
X175386772Y-117996042D01*
X175551184Y-117963339D01*
X175718816Y-117963339D01*
X175883228Y-117996042D01*
X175883228Y-117996042D01*
G37*
G36*
X169013228Y-117996042D02*
G01*
X169168100Y-118060192D01*
X169307481Y-118153324D01*
X169426015Y-118271858D01*
X169519147Y-118411239D01*
X169583297Y-118566111D01*
X169616000Y-118730523D01*
X169616000Y-118898155D01*
X169583297Y-119062567D01*
X169519147Y-119217439D01*
X169426015Y-119356820D01*
X169307481Y-119475354D01*
X169168100Y-119568486D01*
X169013228Y-119632636D01*
X168848816Y-119665339D01*
X168681184Y-119665339D01*
X168516772Y-119632636D01*
X168361900Y-119568486D01*
X168222519Y-119475354D01*
X168103985Y-119356820D01*
X168010853Y-119217439D01*
X167946703Y-119062567D01*
X167914000Y-118898155D01*
X167914000Y-118730523D01*
X167946703Y-118566111D01*
X168010853Y-118411239D01*
X168103985Y-118271858D01*
X168222519Y-118153324D01*
X168361900Y-118060192D01*
X168516772Y-117996042D01*
X168681184Y-117963339D01*
X168848816Y-117963339D01*
X169013228Y-117996042D01*
X169013228Y-117996042D01*
G37*
G36*
X171303228Y-117996042D02*
G01*
X171458100Y-118060192D01*
X171597481Y-118153324D01*
X171716015Y-118271858D01*
X171809147Y-118411239D01*
X171873297Y-118566111D01*
X171906000Y-118730523D01*
X171906000Y-118898155D01*
X171873297Y-119062567D01*
X171809147Y-119217439D01*
X171716015Y-119356820D01*
X171597481Y-119475354D01*
X171458100Y-119568486D01*
X171303228Y-119632636D01*
X171138816Y-119665339D01*
X170971184Y-119665339D01*
X170806772Y-119632636D01*
X170651900Y-119568486D01*
X170512519Y-119475354D01*
X170393985Y-119356820D01*
X170300853Y-119217439D01*
X170236703Y-119062567D01*
X170204000Y-118898155D01*
X170204000Y-118730523D01*
X170236703Y-118566111D01*
X170300853Y-118411239D01*
X170393985Y-118271858D01*
X170512519Y-118153324D01*
X170651900Y-118060192D01*
X170806772Y-117996042D01*
X170971184Y-117963339D01*
X171138816Y-117963339D01*
X171303228Y-117996042D01*
X171303228Y-117996042D01*
G37*
G36*
X167326000Y-119665339D02*
G01*
X165624000Y-119665339D01*
X165624000Y-117963339D01*
X167326000Y-117963339D01*
X167326000Y-119665339D01*
X167326000Y-119665339D01*
G37*
G36*
X173534890Y-118188356D02*
G01*
X173653364Y-118237430D01*
X173759988Y-118308674D01*
X173850665Y-118399351D01*
X173921909Y-118505975D01*
X173970983Y-118624449D01*
X173996000Y-118750221D01*
X173996000Y-118878457D01*
X173970983Y-119004229D01*
X173921909Y-119122703D01*
X173850665Y-119229327D01*
X173759988Y-119320004D01*
X173653364Y-119391248D01*
X173653363Y-119391249D01*
X173653362Y-119391249D01*
X173534890Y-119440322D01*
X173409119Y-119465339D01*
X173280881Y-119465339D01*
X173155110Y-119440322D01*
X173036638Y-119391249D01*
X173036637Y-119391249D01*
X173036636Y-119391248D01*
X172930012Y-119320004D01*
X172839335Y-119229327D01*
X172768091Y-119122703D01*
X172719017Y-119004229D01*
X172694000Y-118878457D01*
X172694000Y-118750221D01*
X172719017Y-118624449D01*
X172768091Y-118505975D01*
X172839335Y-118399351D01*
X172930012Y-118308674D01*
X173036636Y-118237430D01*
X173155110Y-118188356D01*
X173280881Y-118163339D01*
X173409119Y-118163339D01*
X173534890Y-118188356D01*
X173534890Y-118188356D01*
G37*
G36*
X162690721Y-114630174D02*
G01*
X162790995Y-114671709D01*
X162790996Y-114671710D01*
X162881242Y-114732010D01*
X162957990Y-114808758D01*
X162957991Y-114808760D01*
X163018291Y-114899005D01*
X163059826Y-114999279D01*
X163081000Y-115105730D01*
X163081000Y-115214270D01*
X163059826Y-115320721D01*
X163018291Y-115420995D01*
X163018290Y-115420996D01*
X162957990Y-115511242D01*
X162881242Y-115587990D01*
X162835812Y-115618345D01*
X162790995Y-115648291D01*
X162690721Y-115689826D01*
X162584270Y-115711000D01*
X162475730Y-115711000D01*
X162369279Y-115689826D01*
X162269005Y-115648291D01*
X162224188Y-115618345D01*
X162178758Y-115587990D01*
X162102010Y-115511242D01*
X162041710Y-115420996D01*
X162041709Y-115420995D01*
X162000174Y-115320721D01*
X161979000Y-115214270D01*
X161979000Y-115105730D01*
X162000174Y-114999279D01*
X162041709Y-114899005D01*
X162102009Y-114808760D01*
X162102010Y-114808758D01*
X162178758Y-114732010D01*
X162269004Y-114671710D01*
X162269005Y-114671709D01*
X162369279Y-114630174D01*
X162475730Y-114609000D01*
X162584270Y-114609000D01*
X162690721Y-114630174D01*
X162690721Y-114630174D01*
G37*
G36*
X176698351Y-113835730D02*
G01*
X176709059Y-113837860D01*
X176845732Y-113894472D01*
X176968735Y-113976660D01*
X177073340Y-114081265D01*
X177155528Y-114204268D01*
X177155529Y-114204270D01*
X177212140Y-114340941D01*
X177241000Y-114486032D01*
X177241000Y-114633968D01*
X177212140Y-114779059D01*
X177194770Y-114820995D01*
X177155528Y-114915732D01*
X177073340Y-115038735D01*
X176968735Y-115143340D01*
X176845732Y-115225528D01*
X176845731Y-115225529D01*
X176845730Y-115225529D01*
X176709059Y-115282140D01*
X176563968Y-115311000D01*
X176416032Y-115311000D01*
X176270941Y-115282140D01*
X176134270Y-115225529D01*
X176134269Y-115225529D01*
X176134268Y-115225528D01*
X176011265Y-115143340D01*
X175906660Y-115038735D01*
X175824472Y-114915732D01*
X175785231Y-114820995D01*
X175767860Y-114779059D01*
X175739000Y-114633968D01*
X175739000Y-114486032D01*
X175767860Y-114340941D01*
X175824471Y-114204270D01*
X175824472Y-114204268D01*
X175906660Y-114081265D01*
X176011265Y-113976660D01*
X176134268Y-113894472D01*
X176270941Y-113837860D01*
X176281649Y-113835730D01*
X176416032Y-113809000D01*
X176563968Y-113809000D01*
X176698351Y-113835730D01*
X176698351Y-113835730D01*
G37*
G36*
X167148351Y-113835730D02*
G01*
X167159059Y-113837860D01*
X167295732Y-113894472D01*
X167418735Y-113976660D01*
X167523340Y-114081265D01*
X167605528Y-114204268D01*
X167605529Y-114204270D01*
X167662140Y-114340941D01*
X167691000Y-114486032D01*
X167691000Y-114633968D01*
X167662140Y-114779059D01*
X167644770Y-114820995D01*
X167605528Y-114915732D01*
X167523340Y-115038735D01*
X167418735Y-115143340D01*
X167295732Y-115225528D01*
X167295731Y-115225529D01*
X167295730Y-115225529D01*
X167159059Y-115282140D01*
X167013968Y-115311000D01*
X166866032Y-115311000D01*
X166720941Y-115282140D01*
X166584270Y-115225529D01*
X166584269Y-115225529D01*
X166584268Y-115225528D01*
X166461265Y-115143340D01*
X166356660Y-115038735D01*
X166274472Y-114915732D01*
X166235231Y-114820995D01*
X166217860Y-114779059D01*
X166189000Y-114633968D01*
X166189000Y-114486032D01*
X166217860Y-114340941D01*
X166274471Y-114204270D01*
X166274472Y-114204268D01*
X166356660Y-114081265D01*
X166461265Y-113976660D01*
X166584268Y-113894472D01*
X166720941Y-113837860D01*
X166731649Y-113835730D01*
X166866032Y-113809000D01*
X167013968Y-113809000D01*
X167148351Y-113835730D01*
X167148351Y-113835730D01*
G37*
G36*
X169058351Y-113835730D02*
G01*
X169069059Y-113837860D01*
X169205732Y-113894472D01*
X169328735Y-113976660D01*
X169433340Y-114081265D01*
X169515528Y-114204268D01*
X169515529Y-114204270D01*
X169572140Y-114340941D01*
X169601000Y-114486032D01*
X169601000Y-114633968D01*
X169572140Y-114779059D01*
X169554770Y-114820995D01*
X169515528Y-114915732D01*
X169433340Y-115038735D01*
X169328735Y-115143340D01*
X169205732Y-115225528D01*
X169205731Y-115225529D01*
X169205730Y-115225529D01*
X169069059Y-115282140D01*
X168923968Y-115311000D01*
X168776032Y-115311000D01*
X168630941Y-115282140D01*
X168494270Y-115225529D01*
X168494269Y-115225529D01*
X168494268Y-115225528D01*
X168371265Y-115143340D01*
X168266660Y-115038735D01*
X168184472Y-114915732D01*
X168145231Y-114820995D01*
X168127860Y-114779059D01*
X168099000Y-114633968D01*
X168099000Y-114486032D01*
X168127860Y-114340941D01*
X168184471Y-114204270D01*
X168184472Y-114204268D01*
X168266660Y-114081265D01*
X168371265Y-113976660D01*
X168494268Y-113894472D01*
X168630941Y-113837860D01*
X168641649Y-113835730D01*
X168776032Y-113809000D01*
X168923968Y-113809000D01*
X169058351Y-113835730D01*
X169058351Y-113835730D01*
G37*
G36*
X174788351Y-113835730D02*
G01*
X174799059Y-113837860D01*
X174935732Y-113894472D01*
X175058735Y-113976660D01*
X175163340Y-114081265D01*
X175245528Y-114204268D01*
X175245529Y-114204270D01*
X175302140Y-114340941D01*
X175331000Y-114486032D01*
X175331000Y-114633968D01*
X175302140Y-114779059D01*
X175284770Y-114820995D01*
X175245528Y-114915732D01*
X175163340Y-115038735D01*
X175058735Y-115143340D01*
X174935732Y-115225528D01*
X174935731Y-115225529D01*
X174935730Y-115225529D01*
X174799059Y-115282140D01*
X174653968Y-115311000D01*
X174506032Y-115311000D01*
X174360941Y-115282140D01*
X174224270Y-115225529D01*
X174224269Y-115225529D01*
X174224268Y-115225528D01*
X174101265Y-115143340D01*
X173996660Y-115038735D01*
X173914472Y-114915732D01*
X173875231Y-114820995D01*
X173857860Y-114779059D01*
X173829000Y-114633968D01*
X173829000Y-114486032D01*
X173857860Y-114340941D01*
X173914471Y-114204270D01*
X173914472Y-114204268D01*
X173996660Y-114081265D01*
X174101265Y-113976660D01*
X174224268Y-113894472D01*
X174360941Y-113837860D01*
X174371649Y-113835730D01*
X174506032Y-113809000D01*
X174653968Y-113809000D01*
X174788351Y-113835730D01*
X174788351Y-113835730D01*
G37*
G36*
X181061000Y-115311000D02*
G01*
X179559000Y-115311000D01*
X179559000Y-113809000D01*
X181061000Y-113809000D01*
X181061000Y-115311000D01*
X181061000Y-115311000D01*
G37*
G36*
X178608351Y-113835730D02*
G01*
X178619059Y-113837860D01*
X178755732Y-113894472D01*
X178878735Y-113976660D01*
X178983340Y-114081265D01*
X179065528Y-114204268D01*
X179065529Y-114204270D01*
X179122140Y-114340941D01*
X179151000Y-114486032D01*
X179151000Y-114633968D01*
X179122140Y-114779059D01*
X179104770Y-114820995D01*
X179065528Y-114915732D01*
X178983340Y-115038735D01*
X178878735Y-115143340D01*
X178755732Y-115225528D01*
X178755731Y-115225529D01*
X178755730Y-115225529D01*
X178619059Y-115282140D01*
X178473968Y-115311000D01*
X178326032Y-115311000D01*
X178180941Y-115282140D01*
X178044270Y-115225529D01*
X178044269Y-115225529D01*
X178044268Y-115225528D01*
X177921265Y-115143340D01*
X177816660Y-115038735D01*
X177734472Y-114915732D01*
X177695231Y-114820995D01*
X177677860Y-114779059D01*
X177649000Y-114633968D01*
X177649000Y-114486032D01*
X177677860Y-114340941D01*
X177734471Y-114204270D01*
X177734472Y-114204268D01*
X177816660Y-114081265D01*
X177921265Y-113976660D01*
X178044268Y-113894472D01*
X178180941Y-113837860D01*
X178191649Y-113835730D01*
X178326032Y-113809000D01*
X178473968Y-113809000D01*
X178608351Y-113835730D01*
X178608351Y-113835730D01*
G37*
G36*
X172830721Y-114030174D02*
G01*
X172930995Y-114071709D01*
X172975812Y-114101655D01*
X173021242Y-114132010D01*
X173097990Y-114208758D01*
X173097991Y-114208760D01*
X173158291Y-114299005D01*
X173199826Y-114399279D01*
X173221000Y-114505730D01*
X173221000Y-114614270D01*
X173199826Y-114720721D01*
X173158291Y-114820995D01*
X173158290Y-114820996D01*
X173097990Y-114911242D01*
X173021242Y-114987990D01*
X172975812Y-115018345D01*
X172930995Y-115048291D01*
X172830721Y-115089826D01*
X172724270Y-115111000D01*
X172615730Y-115111000D01*
X172509279Y-115089826D01*
X172409005Y-115048291D01*
X172364188Y-115018345D01*
X172318758Y-114987990D01*
X172242010Y-114911242D01*
X172181710Y-114820996D01*
X172181709Y-114820995D01*
X172140174Y-114720721D01*
X172119000Y-114614270D01*
X172119000Y-114505730D01*
X172140174Y-114399279D01*
X172181709Y-114299005D01*
X172242009Y-114208760D01*
X172242010Y-114208758D01*
X172318758Y-114132010D01*
X172364188Y-114101655D01*
X172409005Y-114071709D01*
X172509279Y-114030174D01*
X172615730Y-114009000D01*
X172724270Y-114009000D01*
X172830721Y-114030174D01*
X172830721Y-114030174D01*
G37*
G36*
X170920721Y-114030174D02*
G01*
X171020995Y-114071709D01*
X171065812Y-114101655D01*
X171111242Y-114132010D01*
X171187990Y-114208758D01*
X171187991Y-114208760D01*
X171248291Y-114299005D01*
X171289826Y-114399279D01*
X171311000Y-114505730D01*
X171311000Y-114614270D01*
X171289826Y-114720721D01*
X171248291Y-114820995D01*
X171248290Y-114820996D01*
X171187990Y-114911242D01*
X171111242Y-114987990D01*
X171065812Y-115018345D01*
X171020995Y-115048291D01*
X170920721Y-115089826D01*
X170814270Y-115111000D01*
X170705730Y-115111000D01*
X170599279Y-115089826D01*
X170499005Y-115048291D01*
X170454188Y-115018345D01*
X170408758Y-114987990D01*
X170332010Y-114911242D01*
X170271710Y-114820996D01*
X170271709Y-114820995D01*
X170230174Y-114720721D01*
X170209000Y-114614270D01*
X170209000Y-114505730D01*
X170230174Y-114399279D01*
X170271709Y-114299005D01*
X170332009Y-114208760D01*
X170332010Y-114208758D01*
X170408758Y-114132010D01*
X170454188Y-114101655D01*
X170499005Y-114071709D01*
X170599279Y-114030174D01*
X170705730Y-114009000D01*
X170814270Y-114009000D01*
X170920721Y-114030174D01*
X170920721Y-114030174D01*
G37*
G36*
X161420721Y-113360174D02*
G01*
X161520995Y-113401709D01*
X161520996Y-113401710D01*
X161611242Y-113462010D01*
X161687990Y-113538758D01*
X161687991Y-113538760D01*
X161748291Y-113629005D01*
X161789826Y-113729279D01*
X161811000Y-113835730D01*
X161811000Y-113944270D01*
X161789826Y-114050721D01*
X161748291Y-114150995D01*
X161748290Y-114150996D01*
X161687990Y-114241242D01*
X161611242Y-114317990D01*
X161576893Y-114340941D01*
X161520995Y-114378291D01*
X161420721Y-114419826D01*
X161314270Y-114441000D01*
X161205730Y-114441000D01*
X161099279Y-114419826D01*
X160999005Y-114378291D01*
X160943107Y-114340941D01*
X160908758Y-114317990D01*
X160832010Y-114241242D01*
X160771710Y-114150996D01*
X160771709Y-114150995D01*
X160730174Y-114050721D01*
X160709000Y-113944270D01*
X160709000Y-113835730D01*
X160730174Y-113729279D01*
X160771709Y-113629005D01*
X160832009Y-113538760D01*
X160832010Y-113538758D01*
X160908758Y-113462010D01*
X160999004Y-113401710D01*
X160999005Y-113401709D01*
X161099279Y-113360174D01*
X161205730Y-113339000D01*
X161314270Y-113339000D01*
X161420721Y-113360174D01*
X161420721Y-113360174D01*
G37*
G36*
X163960721Y-113360174D02*
G01*
X164060995Y-113401709D01*
X164060996Y-113401710D01*
X164151242Y-113462010D01*
X164227990Y-113538758D01*
X164227991Y-113538760D01*
X164288291Y-113629005D01*
X164329826Y-113729279D01*
X164351000Y-113835730D01*
X164351000Y-113944270D01*
X164329826Y-114050721D01*
X164288291Y-114150995D01*
X164288290Y-114150996D01*
X164227990Y-114241242D01*
X164151242Y-114317990D01*
X164116893Y-114340941D01*
X164060995Y-114378291D01*
X163960721Y-114419826D01*
X163854270Y-114441000D01*
X163745730Y-114441000D01*
X163639279Y-114419826D01*
X163539005Y-114378291D01*
X163483107Y-114340941D01*
X163448758Y-114317990D01*
X163372010Y-114241242D01*
X163311710Y-114150996D01*
X163311709Y-114150995D01*
X163270174Y-114050721D01*
X163249000Y-113944270D01*
X163249000Y-113835730D01*
X163270174Y-113729279D01*
X163311709Y-113629005D01*
X163372009Y-113538760D01*
X163372010Y-113538758D01*
X163448758Y-113462010D01*
X163539004Y-113401710D01*
X163539005Y-113401709D01*
X163639279Y-113360174D01*
X163745730Y-113339000D01*
X163854270Y-113339000D01*
X163960721Y-113360174D01*
X163960721Y-113360174D01*
G37*
G36*
X176709059Y-111927860D02*
G01*
X176845732Y-111984472D01*
X176968735Y-112066660D01*
X177073340Y-112171265D01*
X177155528Y-112294268D01*
X177212140Y-112430941D01*
X177241000Y-112576033D01*
X177241000Y-112723967D01*
X177212140Y-112869059D01*
X177155528Y-113005732D01*
X177073340Y-113128735D01*
X176968735Y-113233340D01*
X176845732Y-113315528D01*
X176845731Y-113315529D01*
X176845730Y-113315529D01*
X176709059Y-113372140D01*
X176563968Y-113401000D01*
X176416032Y-113401000D01*
X176270941Y-113372140D01*
X176134270Y-113315529D01*
X176134269Y-113315529D01*
X176134268Y-113315528D01*
X176011265Y-113233340D01*
X175906660Y-113128735D01*
X175824472Y-113005732D01*
X175767860Y-112869059D01*
X175739000Y-112723967D01*
X175739000Y-112576033D01*
X175767860Y-112430941D01*
X175824472Y-112294268D01*
X175906660Y-112171265D01*
X176011265Y-112066660D01*
X176134268Y-111984472D01*
X176270941Y-111927860D01*
X176416032Y-111899000D01*
X176563968Y-111899000D01*
X176709059Y-111927860D01*
X176709059Y-111927860D01*
G37*
G36*
X180529059Y-111927860D02*
G01*
X180665732Y-111984472D01*
X180788735Y-112066660D01*
X180893340Y-112171265D01*
X180975528Y-112294268D01*
X181032140Y-112430941D01*
X181061000Y-112576033D01*
X181061000Y-112723967D01*
X181032140Y-112869059D01*
X180975528Y-113005732D01*
X180893340Y-113128735D01*
X180788735Y-113233340D01*
X180665732Y-113315528D01*
X180665731Y-113315529D01*
X180665730Y-113315529D01*
X180529059Y-113372140D01*
X180383968Y-113401000D01*
X180236032Y-113401000D01*
X180090941Y-113372140D01*
X179954270Y-113315529D01*
X179954269Y-113315529D01*
X179954268Y-113315528D01*
X179831265Y-113233340D01*
X179726660Y-113128735D01*
X179644472Y-113005732D01*
X179587860Y-112869059D01*
X179559000Y-112723967D01*
X179559000Y-112576033D01*
X179587860Y-112430941D01*
X179644472Y-112294268D01*
X179726660Y-112171265D01*
X179831265Y-112066660D01*
X179954268Y-111984472D01*
X180090941Y-111927860D01*
X180236032Y-111899000D01*
X180383968Y-111899000D01*
X180529059Y-111927860D01*
X180529059Y-111927860D01*
G37*
G36*
X178619059Y-111927860D02*
G01*
X178755732Y-111984472D01*
X178878735Y-112066660D01*
X178983340Y-112171265D01*
X179065528Y-112294268D01*
X179122140Y-112430941D01*
X179151000Y-112576033D01*
X179151000Y-112723967D01*
X179122140Y-112869059D01*
X179065528Y-113005732D01*
X178983340Y-113128735D01*
X178878735Y-113233340D01*
X178755732Y-113315528D01*
X178755731Y-113315529D01*
X178755730Y-113315529D01*
X178619059Y-113372140D01*
X178473968Y-113401000D01*
X178326032Y-113401000D01*
X178180941Y-113372140D01*
X178044270Y-113315529D01*
X178044269Y-113315529D01*
X178044268Y-113315528D01*
X177921265Y-113233340D01*
X177816660Y-113128735D01*
X177734472Y-113005732D01*
X177677860Y-112869059D01*
X177649000Y-112723967D01*
X177649000Y-112576033D01*
X177677860Y-112430941D01*
X177734472Y-112294268D01*
X177816660Y-112171265D01*
X177921265Y-112066660D01*
X178044268Y-111984472D01*
X178180941Y-111927860D01*
X178326032Y-111899000D01*
X178473968Y-111899000D01*
X178619059Y-111927860D01*
X178619059Y-111927860D01*
G37*
G36*
X174799059Y-111927860D02*
G01*
X174935732Y-111984472D01*
X175058735Y-112066660D01*
X175163340Y-112171265D01*
X175245528Y-112294268D01*
X175302140Y-112430941D01*
X175331000Y-112576033D01*
X175331000Y-112723967D01*
X175302140Y-112869059D01*
X175245528Y-113005732D01*
X175163340Y-113128735D01*
X175058735Y-113233340D01*
X174935732Y-113315528D01*
X174935731Y-113315529D01*
X174935730Y-113315529D01*
X174799059Y-113372140D01*
X174653968Y-113401000D01*
X174506032Y-113401000D01*
X174360941Y-113372140D01*
X174224270Y-113315529D01*
X174224269Y-113315529D01*
X174224268Y-113315528D01*
X174101265Y-113233340D01*
X173996660Y-113128735D01*
X173914472Y-113005732D01*
X173857860Y-112869059D01*
X173829000Y-112723967D01*
X173829000Y-112576033D01*
X173857860Y-112430941D01*
X173914472Y-112294268D01*
X173996660Y-112171265D01*
X174101265Y-112066660D01*
X174224268Y-111984472D01*
X174360941Y-111927860D01*
X174506032Y-111899000D01*
X174653968Y-111899000D01*
X174799059Y-111927860D01*
X174799059Y-111927860D01*
G37*
G36*
X170979059Y-111927860D02*
G01*
X171115732Y-111984472D01*
X171238735Y-112066660D01*
X171343340Y-112171265D01*
X171425528Y-112294268D01*
X171482140Y-112430941D01*
X171511000Y-112576033D01*
X171511000Y-112723967D01*
X171482140Y-112869059D01*
X171425528Y-113005732D01*
X171343340Y-113128735D01*
X171238735Y-113233340D01*
X171115732Y-113315528D01*
X171115731Y-113315529D01*
X171115730Y-113315529D01*
X170979059Y-113372140D01*
X170833968Y-113401000D01*
X170686032Y-113401000D01*
X170540941Y-113372140D01*
X170404270Y-113315529D01*
X170404269Y-113315529D01*
X170404268Y-113315528D01*
X170281265Y-113233340D01*
X170176660Y-113128735D01*
X170094472Y-113005732D01*
X170037860Y-112869059D01*
X170009000Y-112723967D01*
X170009000Y-112576033D01*
X170037860Y-112430941D01*
X170094472Y-112294268D01*
X170176660Y-112171265D01*
X170281265Y-112066660D01*
X170404268Y-111984472D01*
X170540941Y-111927860D01*
X170686032Y-111899000D01*
X170833968Y-111899000D01*
X170979059Y-111927860D01*
X170979059Y-111927860D01*
G37*
G36*
X169069059Y-111927860D02*
G01*
X169205732Y-111984472D01*
X169328735Y-112066660D01*
X169433340Y-112171265D01*
X169515528Y-112294268D01*
X169572140Y-112430941D01*
X169601000Y-112576033D01*
X169601000Y-112723967D01*
X169572140Y-112869059D01*
X169515528Y-113005732D01*
X169433340Y-113128735D01*
X169328735Y-113233340D01*
X169205732Y-113315528D01*
X169205731Y-113315529D01*
X169205730Y-113315529D01*
X169069059Y-113372140D01*
X168923968Y-113401000D01*
X168776032Y-113401000D01*
X168630941Y-113372140D01*
X168494270Y-113315529D01*
X168494269Y-113315529D01*
X168494268Y-113315528D01*
X168371265Y-113233340D01*
X168266660Y-113128735D01*
X168184472Y-113005732D01*
X168127860Y-112869059D01*
X168099000Y-112723967D01*
X168099000Y-112576033D01*
X168127860Y-112430941D01*
X168184472Y-112294268D01*
X168266660Y-112171265D01*
X168371265Y-112066660D01*
X168494268Y-111984472D01*
X168630941Y-111927860D01*
X168776032Y-111899000D01*
X168923968Y-111899000D01*
X169069059Y-111927860D01*
X169069059Y-111927860D01*
G37*
G36*
X167159059Y-111927860D02*
G01*
X167295732Y-111984472D01*
X167418735Y-112066660D01*
X167523340Y-112171265D01*
X167605528Y-112294268D01*
X167662140Y-112430941D01*
X167691000Y-112576033D01*
X167691000Y-112723967D01*
X167662140Y-112869059D01*
X167605528Y-113005732D01*
X167523340Y-113128735D01*
X167418735Y-113233340D01*
X167295732Y-113315528D01*
X167295731Y-113315529D01*
X167295730Y-113315529D01*
X167159059Y-113372140D01*
X167013968Y-113401000D01*
X166866032Y-113401000D01*
X166720941Y-113372140D01*
X166584270Y-113315529D01*
X166584269Y-113315529D01*
X166584268Y-113315528D01*
X166461265Y-113233340D01*
X166356660Y-113128735D01*
X166274472Y-113005732D01*
X166217860Y-112869059D01*
X166189000Y-112723967D01*
X166189000Y-112576033D01*
X166217860Y-112430941D01*
X166274472Y-112294268D01*
X166356660Y-112171265D01*
X166461265Y-112066660D01*
X166584268Y-111984472D01*
X166720941Y-111927860D01*
X166866032Y-111899000D01*
X167013968Y-111899000D01*
X167159059Y-111927860D01*
X167159059Y-111927860D01*
G37*
G36*
X172889059Y-111927860D02*
G01*
X173025732Y-111984472D01*
X173148735Y-112066660D01*
X173253340Y-112171265D01*
X173335528Y-112294268D01*
X173392140Y-112430941D01*
X173421000Y-112576033D01*
X173421000Y-112723967D01*
X173392140Y-112869059D01*
X173335528Y-113005732D01*
X173253340Y-113128735D01*
X173148735Y-113233340D01*
X173025732Y-113315528D01*
X173025731Y-113315529D01*
X173025730Y-113315529D01*
X172889059Y-113372140D01*
X172743968Y-113401000D01*
X172596032Y-113401000D01*
X172450941Y-113372140D01*
X172314270Y-113315529D01*
X172314269Y-113315529D01*
X172314268Y-113315528D01*
X172191265Y-113233340D01*
X172086660Y-113128735D01*
X172004472Y-113005732D01*
X171947860Y-112869059D01*
X171919000Y-112723967D01*
X171919000Y-112576033D01*
X171947860Y-112430941D01*
X172004472Y-112294268D01*
X172086660Y-112171265D01*
X172191265Y-112066660D01*
X172314268Y-111984472D01*
X172450941Y-111927860D01*
X172596032Y-111899000D01*
X172743968Y-111899000D01*
X172889059Y-111927860D01*
X172889059Y-111927860D01*
G37*
G36*
X161420721Y-110820174D02*
G01*
X161520995Y-110861709D01*
X161520996Y-110861710D01*
X161611242Y-110922010D01*
X161687990Y-110998758D01*
X161687991Y-110998760D01*
X161748291Y-111089005D01*
X161789826Y-111189279D01*
X161811000Y-111295730D01*
X161811000Y-111404270D01*
X161789826Y-111510721D01*
X161748291Y-111610995D01*
X161748290Y-111610996D01*
X161687990Y-111701242D01*
X161611242Y-111777990D01*
X161565812Y-111808345D01*
X161520995Y-111838291D01*
X161420721Y-111879826D01*
X161314270Y-111901000D01*
X161205730Y-111901000D01*
X161099279Y-111879826D01*
X160999005Y-111838291D01*
X160954188Y-111808345D01*
X160908758Y-111777990D01*
X160832010Y-111701242D01*
X160771710Y-111610996D01*
X160771709Y-111610995D01*
X160730174Y-111510721D01*
X160709000Y-111404270D01*
X160709000Y-111295730D01*
X160730174Y-111189279D01*
X160771709Y-111089005D01*
X160832009Y-110998760D01*
X160832010Y-110998758D01*
X160908758Y-110922010D01*
X160999004Y-110861710D01*
X160999005Y-110861709D01*
X161099279Y-110820174D01*
X161205730Y-110799000D01*
X161314270Y-110799000D01*
X161420721Y-110820174D01*
X161420721Y-110820174D01*
G37*
G36*
X163960721Y-110820174D02*
G01*
X164060995Y-110861709D01*
X164060996Y-110861710D01*
X164151242Y-110922010D01*
X164227990Y-110998758D01*
X164227991Y-110998760D01*
X164288291Y-111089005D01*
X164329826Y-111189279D01*
X164351000Y-111295730D01*
X164351000Y-111404270D01*
X164329826Y-111510721D01*
X164288291Y-111610995D01*
X164288290Y-111610996D01*
X164227990Y-111701242D01*
X164151242Y-111777990D01*
X164105812Y-111808345D01*
X164060995Y-111838291D01*
X163960721Y-111879826D01*
X163854270Y-111901000D01*
X163745730Y-111901000D01*
X163639279Y-111879826D01*
X163539005Y-111838291D01*
X163494188Y-111808345D01*
X163448758Y-111777990D01*
X163372010Y-111701242D01*
X163311710Y-111610996D01*
X163311709Y-111610995D01*
X163270174Y-111510721D01*
X163249000Y-111404270D01*
X163249000Y-111295730D01*
X163270174Y-111189279D01*
X163311709Y-111089005D01*
X163372009Y-110998760D01*
X163372010Y-110998758D01*
X163448758Y-110922010D01*
X163539004Y-110861710D01*
X163539005Y-110861709D01*
X163639279Y-110820174D01*
X163745730Y-110799000D01*
X163854270Y-110799000D01*
X163960721Y-110820174D01*
X163960721Y-110820174D01*
G37*
G36*
X170979059Y-110017860D02*
G01*
X171115732Y-110074472D01*
X171238735Y-110156660D01*
X171343340Y-110261265D01*
X171425528Y-110384268D01*
X171425529Y-110384270D01*
X171482140Y-110520941D01*
X171511000Y-110666032D01*
X171511000Y-110813968D01*
X171482140Y-110959059D01*
X171428315Y-111089005D01*
X171425528Y-111095732D01*
X171343340Y-111218735D01*
X171238735Y-111323340D01*
X171115732Y-111405528D01*
X171115731Y-111405529D01*
X171115730Y-111405529D01*
X170979059Y-111462140D01*
X170833968Y-111491000D01*
X170686032Y-111491000D01*
X170540941Y-111462140D01*
X170404270Y-111405529D01*
X170404269Y-111405529D01*
X170404268Y-111405528D01*
X170281265Y-111323340D01*
X170176660Y-111218735D01*
X170094472Y-111095732D01*
X170091686Y-111089005D01*
X170037860Y-110959059D01*
X170009000Y-110813968D01*
X170009000Y-110666032D01*
X170037860Y-110520941D01*
X170094471Y-110384270D01*
X170094472Y-110384268D01*
X170176660Y-110261265D01*
X170281265Y-110156660D01*
X170404268Y-110074472D01*
X170540941Y-110017860D01*
X170686032Y-109989000D01*
X170833968Y-109989000D01*
X170979059Y-110017860D01*
X170979059Y-110017860D01*
G37*
G36*
X167159059Y-110017860D02*
G01*
X167295732Y-110074472D01*
X167418735Y-110156660D01*
X167523340Y-110261265D01*
X167605528Y-110384268D01*
X167605529Y-110384270D01*
X167662140Y-110520941D01*
X167691000Y-110666032D01*
X167691000Y-110813968D01*
X167662140Y-110959059D01*
X167608315Y-111089005D01*
X167605528Y-111095732D01*
X167523340Y-111218735D01*
X167418735Y-111323340D01*
X167295732Y-111405528D01*
X167295731Y-111405529D01*
X167295730Y-111405529D01*
X167159059Y-111462140D01*
X167013968Y-111491000D01*
X166866032Y-111491000D01*
X166720941Y-111462140D01*
X166584270Y-111405529D01*
X166584269Y-111405529D01*
X166584268Y-111405528D01*
X166461265Y-111323340D01*
X166356660Y-111218735D01*
X166274472Y-111095732D01*
X166271686Y-111089005D01*
X166217860Y-110959059D01*
X166189000Y-110813968D01*
X166189000Y-110666032D01*
X166217860Y-110520941D01*
X166274471Y-110384270D01*
X166274472Y-110384268D01*
X166356660Y-110261265D01*
X166461265Y-110156660D01*
X166584268Y-110074472D01*
X166720941Y-110017860D01*
X166866032Y-109989000D01*
X167013968Y-109989000D01*
X167159059Y-110017860D01*
X167159059Y-110017860D01*
G37*
G36*
X169069059Y-110017860D02*
G01*
X169205732Y-110074472D01*
X169328735Y-110156660D01*
X169433340Y-110261265D01*
X169515528Y-110384268D01*
X169515529Y-110384270D01*
X169572140Y-110520941D01*
X169601000Y-110666032D01*
X169601000Y-110813968D01*
X169572140Y-110959059D01*
X169518315Y-111089005D01*
X169515528Y-111095732D01*
X169433340Y-111218735D01*
X169328735Y-111323340D01*
X169205732Y-111405528D01*
X169205731Y-111405529D01*
X169205730Y-111405529D01*
X169069059Y-111462140D01*
X168923968Y-111491000D01*
X168776032Y-111491000D01*
X168630941Y-111462140D01*
X168494270Y-111405529D01*
X168494269Y-111405529D01*
X168494268Y-111405528D01*
X168371265Y-111323340D01*
X168266660Y-111218735D01*
X168184472Y-111095732D01*
X168181686Y-111089005D01*
X168127860Y-110959059D01*
X168099000Y-110813968D01*
X168099000Y-110666032D01*
X168127860Y-110520941D01*
X168184471Y-110384270D01*
X168184472Y-110384268D01*
X168266660Y-110261265D01*
X168371265Y-110156660D01*
X168494268Y-110074472D01*
X168630941Y-110017860D01*
X168776032Y-109989000D01*
X168923968Y-109989000D01*
X169069059Y-110017860D01*
X169069059Y-110017860D01*
G37*
G36*
X172889059Y-110017860D02*
G01*
X173025732Y-110074472D01*
X173148735Y-110156660D01*
X173253340Y-110261265D01*
X173335528Y-110384268D01*
X173335529Y-110384270D01*
X173392140Y-110520941D01*
X173421000Y-110666032D01*
X173421000Y-110813968D01*
X173392140Y-110959059D01*
X173338315Y-111089005D01*
X173335528Y-111095732D01*
X173253340Y-111218735D01*
X173148735Y-111323340D01*
X173025732Y-111405528D01*
X173025731Y-111405529D01*
X173025730Y-111405529D01*
X172889059Y-111462140D01*
X172743968Y-111491000D01*
X172596032Y-111491000D01*
X172450941Y-111462140D01*
X172314270Y-111405529D01*
X172314269Y-111405529D01*
X172314268Y-111405528D01*
X172191265Y-111323340D01*
X172086660Y-111218735D01*
X172004472Y-111095732D01*
X172001686Y-111089005D01*
X171947860Y-110959059D01*
X171919000Y-110813968D01*
X171919000Y-110666032D01*
X171947860Y-110520941D01*
X172004471Y-110384270D01*
X172004472Y-110384268D01*
X172086660Y-110261265D01*
X172191265Y-110156660D01*
X172314268Y-110074472D01*
X172450941Y-110017860D01*
X172596032Y-109989000D01*
X172743968Y-109989000D01*
X172889059Y-110017860D01*
X172889059Y-110017860D01*
G37*
G36*
X174799059Y-110017860D02*
G01*
X174935732Y-110074472D01*
X175058735Y-110156660D01*
X175163340Y-110261265D01*
X175245528Y-110384268D01*
X175245529Y-110384270D01*
X175302140Y-110520941D01*
X175331000Y-110666032D01*
X175331000Y-110813968D01*
X175302140Y-110959059D01*
X175248315Y-111089005D01*
X175245528Y-111095732D01*
X175163340Y-111218735D01*
X175058735Y-111323340D01*
X174935732Y-111405528D01*
X174935731Y-111405529D01*
X174935730Y-111405529D01*
X174799059Y-111462140D01*
X174653968Y-111491000D01*
X174506032Y-111491000D01*
X174360941Y-111462140D01*
X174224270Y-111405529D01*
X174224269Y-111405529D01*
X174224268Y-111405528D01*
X174101265Y-111323340D01*
X173996660Y-111218735D01*
X173914472Y-111095732D01*
X173911686Y-111089005D01*
X173857860Y-110959059D01*
X173829000Y-110813968D01*
X173829000Y-110666032D01*
X173857860Y-110520941D01*
X173914471Y-110384270D01*
X173914472Y-110384268D01*
X173996660Y-110261265D01*
X174101265Y-110156660D01*
X174224268Y-110074472D01*
X174360941Y-110017860D01*
X174506032Y-109989000D01*
X174653968Y-109989000D01*
X174799059Y-110017860D01*
X174799059Y-110017860D01*
G37*
G36*
X176709059Y-110017860D02*
G01*
X176845732Y-110074472D01*
X176968735Y-110156660D01*
X177073340Y-110261265D01*
X177155528Y-110384268D01*
X177155529Y-110384270D01*
X177212140Y-110520941D01*
X177241000Y-110666032D01*
X177241000Y-110813968D01*
X177212140Y-110959059D01*
X177158315Y-111089005D01*
X177155528Y-111095732D01*
X177073340Y-111218735D01*
X176968735Y-111323340D01*
X176845732Y-111405528D01*
X176845731Y-111405529D01*
X176845730Y-111405529D01*
X176709059Y-111462140D01*
X176563968Y-111491000D01*
X176416032Y-111491000D01*
X176270941Y-111462140D01*
X176134270Y-111405529D01*
X176134269Y-111405529D01*
X176134268Y-111405528D01*
X176011265Y-111323340D01*
X175906660Y-111218735D01*
X175824472Y-111095732D01*
X175821686Y-111089005D01*
X175767860Y-110959059D01*
X175739000Y-110813968D01*
X175739000Y-110666032D01*
X175767860Y-110520941D01*
X175824471Y-110384270D01*
X175824472Y-110384268D01*
X175906660Y-110261265D01*
X176011265Y-110156660D01*
X176134268Y-110074472D01*
X176270941Y-110017860D01*
X176416032Y-109989000D01*
X176563968Y-109989000D01*
X176709059Y-110017860D01*
X176709059Y-110017860D01*
G37*
G36*
X178619059Y-110017860D02*
G01*
X178755732Y-110074472D01*
X178878735Y-110156660D01*
X178983340Y-110261265D01*
X179065528Y-110384268D01*
X179065529Y-110384270D01*
X179122140Y-110520941D01*
X179151000Y-110666032D01*
X179151000Y-110813968D01*
X179122140Y-110959059D01*
X179068315Y-111089005D01*
X179065528Y-111095732D01*
X178983340Y-111218735D01*
X178878735Y-111323340D01*
X178755732Y-111405528D01*
X178755731Y-111405529D01*
X178755730Y-111405529D01*
X178619059Y-111462140D01*
X178473968Y-111491000D01*
X178326032Y-111491000D01*
X178180941Y-111462140D01*
X178044270Y-111405529D01*
X178044269Y-111405529D01*
X178044268Y-111405528D01*
X177921265Y-111323340D01*
X177816660Y-111218735D01*
X177734472Y-111095732D01*
X177731686Y-111089005D01*
X177677860Y-110959059D01*
X177649000Y-110813968D01*
X177649000Y-110666032D01*
X177677860Y-110520941D01*
X177734471Y-110384270D01*
X177734472Y-110384268D01*
X177816660Y-110261265D01*
X177921265Y-110156660D01*
X178044268Y-110074472D01*
X178180941Y-110017860D01*
X178326032Y-109989000D01*
X178473968Y-109989000D01*
X178619059Y-110017860D01*
X178619059Y-110017860D01*
G37*
G36*
X180529059Y-110017860D02*
G01*
X180665732Y-110074472D01*
X180788735Y-110156660D01*
X180893340Y-110261265D01*
X180975528Y-110384268D01*
X180975529Y-110384270D01*
X181032140Y-110520941D01*
X181061000Y-110666032D01*
X181061000Y-110813968D01*
X181032140Y-110959059D01*
X180978315Y-111089005D01*
X180975528Y-111095732D01*
X180893340Y-111218735D01*
X180788735Y-111323340D01*
X180665732Y-111405528D01*
X180665731Y-111405529D01*
X180665730Y-111405529D01*
X180529059Y-111462140D01*
X180383968Y-111491000D01*
X180236032Y-111491000D01*
X180090941Y-111462140D01*
X179954270Y-111405529D01*
X179954269Y-111405529D01*
X179954268Y-111405528D01*
X179831265Y-111323340D01*
X179726660Y-111218735D01*
X179644472Y-111095732D01*
X179641686Y-111089005D01*
X179587860Y-110959059D01*
X179559000Y-110813968D01*
X179559000Y-110666032D01*
X179587860Y-110520941D01*
X179644471Y-110384270D01*
X179644472Y-110384268D01*
X179726660Y-110261265D01*
X179831265Y-110156660D01*
X179954268Y-110074472D01*
X180090941Y-110017860D01*
X180236032Y-109989000D01*
X180383968Y-109989000D01*
X180529059Y-110017860D01*
X180529059Y-110017860D01*
G37*
G36*
X187317423Y-107151661D02*
G01*
X187697148Y-107308948D01*
X187708881Y-107313808D01*
X188061183Y-107549209D01*
X188360791Y-107848817D01*
X188596192Y-108201119D01*
X188596193Y-108201121D01*
X188758339Y-108592577D01*
X188841000Y-109008144D01*
X188841000Y-109431856D01*
X188758339Y-109847423D01*
X188630249Y-110156660D01*
X188596192Y-110238881D01*
X188360791Y-110591183D01*
X188061183Y-110890791D01*
X187708881Y-111126192D01*
X187708880Y-111126193D01*
X187708879Y-111126193D01*
X187317423Y-111288339D01*
X186901856Y-111371000D01*
X186478144Y-111371000D01*
X186062577Y-111288339D01*
X185671121Y-111126193D01*
X185671120Y-111126193D01*
X185671119Y-111126192D01*
X185318817Y-110890791D01*
X185019209Y-110591183D01*
X184783808Y-110238881D01*
X184749751Y-110156660D01*
X184621661Y-109847423D01*
X184539000Y-109431856D01*
X184539000Y-109008144D01*
X184621661Y-108592577D01*
X184783807Y-108201121D01*
X184783808Y-108201119D01*
X185019209Y-107848817D01*
X185318817Y-107549209D01*
X185671119Y-107313808D01*
X185682852Y-107308948D01*
X186062577Y-107151661D01*
X186478144Y-107069000D01*
X186901856Y-107069000D01*
X187317423Y-107151661D01*
X187317423Y-107151661D01*
G37*
G36*
X155517423Y-107151661D02*
G01*
X155897148Y-107308948D01*
X155908881Y-107313808D01*
X156261183Y-107549209D01*
X156560791Y-107848817D01*
X156796192Y-108201119D01*
X156796193Y-108201121D01*
X156958339Y-108592577D01*
X157041000Y-109008144D01*
X157041000Y-109431856D01*
X156958339Y-109847423D01*
X156830249Y-110156660D01*
X156796192Y-110238881D01*
X156560791Y-110591183D01*
X156261183Y-110890791D01*
X155908881Y-111126192D01*
X155908880Y-111126193D01*
X155908879Y-111126193D01*
X155517423Y-111288339D01*
X155101856Y-111371000D01*
X154678144Y-111371000D01*
X154262577Y-111288339D01*
X153871121Y-111126193D01*
X153871120Y-111126193D01*
X153871119Y-111126192D01*
X153518817Y-110890791D01*
X153219209Y-110591183D01*
X152983808Y-110238881D01*
X152949751Y-110156660D01*
X152821661Y-109847423D01*
X152739000Y-109431856D01*
X152739000Y-109008144D01*
X152821661Y-108592577D01*
X152983807Y-108201121D01*
X152983808Y-108201119D01*
X153219209Y-107848817D01*
X153518817Y-107549209D01*
X153871119Y-107313808D01*
X153882852Y-107308948D01*
X154262577Y-107151661D01*
X154678144Y-107069000D01*
X155101856Y-107069000D01*
X155517423Y-107151661D01*
X155517423Y-107151661D01*
G37*
G36*
X162690721Y-109550174D02*
G01*
X162790995Y-109591709D01*
X162790996Y-109591710D01*
X162881242Y-109652010D01*
X162957990Y-109728758D01*
X162957991Y-109728760D01*
X163018291Y-109819005D01*
X163059826Y-109919279D01*
X163081000Y-110025730D01*
X163081000Y-110134270D01*
X163059826Y-110240721D01*
X163018291Y-110340995D01*
X163018290Y-110340996D01*
X162957990Y-110431242D01*
X162881242Y-110507990D01*
X162861859Y-110520941D01*
X162790995Y-110568291D01*
X162690721Y-110609826D01*
X162584270Y-110631000D01*
X162475730Y-110631000D01*
X162369279Y-110609826D01*
X162269005Y-110568291D01*
X162198141Y-110520941D01*
X162178758Y-110507990D01*
X162102010Y-110431242D01*
X162041710Y-110340996D01*
X162041709Y-110340995D01*
X162000174Y-110240721D01*
X161979000Y-110134270D01*
X161979000Y-110025730D01*
X162000174Y-109919279D01*
X162041709Y-109819005D01*
X162102009Y-109728760D01*
X162102010Y-109728758D01*
X162178758Y-109652010D01*
X162269004Y-109591710D01*
X162269005Y-109591709D01*
X162369279Y-109550174D01*
X162475730Y-109529000D01*
X162584270Y-109529000D01*
X162690721Y-109550174D01*
X162690721Y-109550174D01*
G37*
G36*
X161559272Y-106423428D02*
G01*
X161745991Y-106500770D01*
X161745993Y-106500771D01*
X161914037Y-106613054D01*
X162056946Y-106755963D01*
X162169229Y-106924007D01*
X162169230Y-106924009D01*
X162246572Y-107110728D01*
X162286000Y-107308947D01*
X162286000Y-107511053D01*
X162246572Y-107709272D01*
X162188770Y-107848817D01*
X162169229Y-107895993D01*
X162056946Y-108064037D01*
X161914037Y-108206946D01*
X161745993Y-108319229D01*
X161745992Y-108319230D01*
X161745991Y-108319230D01*
X161559272Y-108396572D01*
X161361053Y-108436000D01*
X161158947Y-108436000D01*
X160960728Y-108396572D01*
X160774009Y-108319230D01*
X160774008Y-108319230D01*
X160774007Y-108319229D01*
X160605963Y-108206946D01*
X160463054Y-108064037D01*
X160350771Y-107895993D01*
X160331230Y-107848817D01*
X160273428Y-107709272D01*
X160234000Y-107511053D01*
X160234000Y-107308947D01*
X160273428Y-107110728D01*
X160350770Y-106924009D01*
X160350771Y-106924007D01*
X160463054Y-106755963D01*
X160605963Y-106613054D01*
X160774007Y-106500771D01*
X160774009Y-106500770D01*
X160960728Y-106423428D01*
X161158947Y-106384000D01*
X161361053Y-106384000D01*
X161559272Y-106423428D01*
X161559272Y-106423428D01*
G37*
G36*
X180609272Y-106423428D02*
G01*
X180795991Y-106500770D01*
X180795993Y-106500771D01*
X180964037Y-106613054D01*
X181106946Y-106755963D01*
X181219229Y-106924007D01*
X181219230Y-106924009D01*
X181296572Y-107110728D01*
X181336000Y-107308947D01*
X181336000Y-107511053D01*
X181296572Y-107709272D01*
X181238770Y-107848817D01*
X181219229Y-107895993D01*
X181106946Y-108064037D01*
X180964037Y-108206946D01*
X180795993Y-108319229D01*
X180795992Y-108319230D01*
X180795991Y-108319230D01*
X180609272Y-108396572D01*
X180411053Y-108436000D01*
X180208947Y-108436000D01*
X180010728Y-108396572D01*
X179824009Y-108319230D01*
X179824008Y-108319230D01*
X179824007Y-108319229D01*
X179655963Y-108206946D01*
X179513054Y-108064037D01*
X179400771Y-107895993D01*
X179381230Y-107848817D01*
X179323428Y-107709272D01*
X179284000Y-107511053D01*
X179284000Y-107308947D01*
X179323428Y-107110728D01*
X179400770Y-106924009D01*
X179400771Y-106924007D01*
X179513054Y-106755963D01*
X179655963Y-106613054D01*
X179824007Y-106500771D01*
X179824009Y-106500770D01*
X180010728Y-106423428D01*
X180208947Y-106384000D01*
X180411053Y-106384000D01*
X180609272Y-106423428D01*
X180609272Y-106423428D01*
G37*
M02*
